# xmcd
#
# Track frame offsets: 
#        150
#        19618
#        37672
#        56352
#        74169
#
# Disc length: 1325 seconds
#
# Revision: 0
# Processed by: cddbd v1.5.2PL0 Copyright (c) Steve Scherf et al.
# Submitted via: ExactAudioCopy v1.0b1
#
DISCID=38052b05
DTITLE=Cheley Tackett - Whisper Me Slow
DYEAR=2010
DGENRE=Country
TTITLE0=Save Yourself
TTITLE1=Train Wreck
TTITLE2=Good For Me
TTITLE3=Teach Me To Forgive
TTITLE4=Up Here
EXTD=
EXTT0=
EXTT1=
EXTT2=
EXTT3=
EXTT4=
PLAYORDER=
